<svg width="44" height="30" viewBox="0 0 44 30" fill="none" xmlns="http://www.w3.org/2000/svg">
<rect x="44" y="29.2876" width="43.0949" height="29.2878" rx="14.6439" transform="rotate(-180 44 29.2876)" fill="#AA5CE2"/>
<path d="M31.6722 15.7042C32.258 15.1184 32.258 14.1687 31.6722 13.5829L22.1263 4.03695C21.5405 3.45117 20.5907 3.45117 20.005 4.03695C19.4192 4.62274 19.4192 5.57249 20.005 6.15827L28.4902 14.6436L20.005 23.1288C19.4192 23.7146 19.4192 24.6644 20.005 25.2502C20.5907 25.8359 21.5405 25.8359 22.1263 25.2502L31.6722 15.7042ZM15.1309 16.1436L30.6116 16.1436L30.6116 13.1436L15.1309 13.1436L15.1309 16.1436Z" fill="white"/>
</svg>
