<svg width="70" height="47" viewBox="0 0 70 47" fill="none" xmlns="http://www.w3.org/2000/svg">
<rect x="69.3145" y="47" width="69.1571" height="47" rx="23.5" transform="rotate(-180 69.3145 47)" fill="#AA5CE2"/>
<path d="M48.8898 24.5607C49.4756 23.9749 49.4756 23.0251 48.8898 22.4393L39.3439 12.8934C38.7581 12.3076 37.8084 12.3076 37.2226 12.8934C36.6368 13.4792 36.6368 14.4289 37.2226 15.0147L45.7079 23.5L37.2226 31.9853C36.6368 32.5711 36.6368 33.5208 37.2226 34.1066C37.8084 34.6924 38.7581 34.6924 39.3439 34.1066L48.8898 24.5607ZM22.9863 25L47.8292 25L47.8292 22L22.9863 22L22.9863 25Z" fill="white"/>
</svg>
