<svg width="142" height="26" viewBox="0 0 142 26" fill="none" xmlns="http://www.w3.org/2000/svg">
<path d="M13 0L15.9187 8.98278H25.3637L17.7225 14.5344L20.6412 23.5172L13 17.9656L5.35879 23.5172L8.27747 14.5344L0.636266 8.98278H10.0813L13 0Z" fill="#FDE828"/>
<path d="M43 0L45.9187 8.98278H55.3637L47.7225 14.5344L50.6412 23.5172L43 17.9656L35.3588 23.5172L38.2775 14.5344L30.6363 8.98278H40.0813L43 0Z" fill="#FDE828"/>
<path d="M70.5625 0L72.9339 8.98278H80.608L74.3996 14.5344L76.771 23.5172L70.5625 17.9656L64.354 23.5172L66.7254 14.5344L60.517 8.98278H68.1911L70.5625 0Z" fill="#FDE828"/>
<path d="M98.125 0L101.044 8.98278H110.489L102.848 14.5344L105.766 23.5172L98.125 17.9656L90.4838 23.5172L93.4025 14.5344L85.7613 8.98278H95.2063L98.125 0Z" fill="#FDE828"/>
<path d="M128.125 0L131.044 8.98278H140.489L132.848 14.5344L135.766 23.5172L128.125 17.9656L120.484 23.5172L123.402 14.5344L115.761 8.98278H125.206L128.125 0Z" fill="#FDE828"/>
</svg>
